<svg id="Layer_5" enable-background="new 0 0 64 64" height="512" viewBox="0 0 64 64" width="512" xmlns="http://www.w3.org/2000/svg" xmlns:xlink="http://www.w3.org/1999/xlink"><linearGradient id="SVGID_1_" gradientUnits="userSpaceOnUse" x1="32" x2="32" y1="63" y2="1"><stop offset="0" stop-color="#9f2fff"/><stop offset="1" stop-color="#0bb1d3"/></linearGradient><path d="m58 17h-7.101c-.399-1.956-1.943-3.5-3.899-3.899v-12.101h-30v14.101c-1.226.25-2.278.96-3 1.93v-.031h-8c-2.757 0-5 2.243-5 5v32c0 2.414 1.721 4.434 4 4.899v1.101c0 1.654 1.346 3 3 3h6c1.654 0 3-1.346 3-3v-1h30v1c0 1.654 1.346 3 3 3h6c1.654 0 3-1.346 3-3v-1.101c2.279-.465 4-2.484 4-4.899v-32c0-2.757-2.243-5-5-5zm-9 4v8h-34v-8zm-24 10h14v1c0 .551-.449 1-1 1h-12c-.551 0-1-.449-1-1zm-12-2h-6v-6h6zm-6 14h16v1c0 1.654 1.346 3 3 3h12c1.654 0 3-1.346 3-3v-1h16v10h-50zm18 0h14v1c0 .551-.449 1-1 1h-12c-.551 0-1-.449-1-1zm32-2h-50v-10h16v1c0 1.654 1.346 3 3 3h12c1.654 0 3-1.346 3-3v-1h16zm0-12h-6v-6h6zm-12-26v10h-5.343c-1.335 0-2.591.52-3.535 1.464l-.536.536h-16.586v-12zm-27 14h18.414l1.122-1.122c.558-.558 1.331-.878 2.121-.878h6.343c1.654 0 3 1.346 3 3v1h-33.816c.414-1.161 1.514-2 2.816-2zm-3 43c0 .551-.449 1-1 1h-6c-.551 0-1-.449-1-1v-1h8zm41 1h-6c-.551 0-1-.449-1-1v-1h8v1c0 .551-.449 1-1 1zm5-7c0 1.654-1.346 3-3 3h-52c-1.654 0-3-1.346-3-3v-32c0-1.654 1.346-3 3-3h7.101c-.066.323-.101.658-.101 1v1h-6c-1.103 0-2 .897-2 2v30c0 1.103.897 2 2 2h50c1.103 0 2-.897 2-2v-30c0-1.103-.897-2-2-2h-6v-2h7c1.654 0 3 1.346 3 3zm-38-47h-2v-2h2zm20 0h-18v-2h18zm0 4h-22v-2h22zm-34 26h2v2h-2zm8 0h2v2h-2zm-4 0h2v2h-2zm36 12h2v2h-2zm-4 0h2v2h-2zm8 0h2v2h-2z" fill="url(#SVGID_1_)"/></svg>